<svg version="1.0" xmlns="http://www.w3.org/2000/svg" width="341.333" height="341.333" viewBox="0 0 256 256">
  <g fill="gray">
    <path d="M37 40c5.2 1.1 10.5 2.3 11.8 2.5 1.3.3 2.9 1.9 3.7 3.8 1.4 2.9 29.9 108.6 32.9 121.7l1.3 5.5 4.9.6c6.6.9 9.5 2.2 13.9 6.1 3.5 3 10.5 15.4 10.5 18.5 0 .7.8 1.3 1.8 1.3 2.3.1 86.6-22.4 85.5-22.7-.5-.2-18.7 4.4-40.5 10.2S122.3 198 121.2 198c-2.4 0-3.8-1.6-4.6-5.6-.5-2.1-.2-3.5.7-4.2.7-.6 17.5-5.4 37.3-10.7 51.6-13.7 46.2-11.9 46.6-16.2.2-2.8 1-4.1 2.9-5.2 2.4-1.3 2.9-1.3 5 .1 1.9 1.2 3.1 4.1 5.8 14.2 2.6 9.5 3.2 13.2 2.4 14.4-.7 1.2-15.8 5.6-48.9 14.5-39.9 10.7-48.4 12.7-50.7 11.9-2.5-1-2.9-.8-5.2 3.2-5.3 9-13.8 14-24 13.9-15.5 0-27.5-12.1-27.5-27.8 0-6.8 3.7-14.2 10.2-20l5-4.5-1.6-4.7c-.8-2.7-8.1-29.3-16.1-59.3S43.6 56.6 43.1 55.4c-.7-1.7-2.9-2.6-10.8-4.3-5.4-1.3-10.3-2.9-10.9-3.7-1.2-1.5-.7-6.1.9-8.2 1.3-1.7 3.7-1.5 14.7.8m175.9 3.2c.4 1.3 1.3 13.5 2 27.3.6 13.7 1.6 34.8 2.1 46.9.6 12 .8 22.7.5 23.7-.7 2-4 3.2-23.8 8.5-13.6 3.6-13.9 3.6-15.7 1.8-1-1.1-6.4-10.8-12.1-21.7-5.6-10.9-10.4-19.5-10.7-19.3-.2.3.1 6.3.6 13.3 2.4 27.4 2.5 33.8 1 35-.8.7-9.2 3.3-18.7 5.9-12.5 3.5-17.7 4.5-18.9 3.8-1.7-1.1-44.7-82.5-45.6-86.4-.4-1.4-.2-3.1.2-3.8.9-1.4 28-9.2 31.9-9.2 1.2 0 2.8.9 3.5 1.9.8 1.1 4.9 10.5 9.3 21 4.4 10.4 8 18.9 8.2 18.8.1-.2-.5-10.3-1.4-22.6-1.4-19.5-1.4-22.4-.1-23.7 1.6-1.7 31.9-10.4 36.1-10.4 2.6 0 3.3 1.1 12.4 20 5.3 11 9.7 19.9 9.9 19.7.2-.1-.9-9.9-2.3-21.6-2.2-19-2.3-21.5-1-22.8 1.8-1.8 23.7-8.1 28.5-8.2 2.5-.1 3.4.4 4.1 2.1" />
    <path d="M80 188.2c-6.9 4.7-9.1 14.4-4.7 20.9 3.8 5.6 8.4 8.2 14 7.6 15-1.4 19.9-20.8 7.4-28.6-4.8-2.9-12.3-2.8-16.7.1m15.8.8c15.4 9.4 3.4 32.5-13.2 25.2-9.9-4.4-11.6-16.4-3.4-23.8 1.2-1.2 3-2.4 3.8-2.7 3.4-1.2 9.6-.6 12.8 1.3" />
  </g>
</svg>
